<?xml version="1.0" encoding="UTF-8" standalone="no"?>
<!-- Created with Inkscape (http://www.inkscape.org/) -->

<svg
   xmlns:dc="http://purl.org/dc/elements/1.1/"
   xmlns:cc="http://creativecommons.org/ns#"
   xmlns:rdf="http://www.w3.org/1999/02/22-rdf-syntax-ns#"
   xmlns:svg="http://www.w3.org/2000/svg"
   xmlns="http://www.w3.org/2000/svg"
   xmlns:sodipodi="http://sodipodi.sourceforge.net/DTD/sodipodi-0.dtd"
   xmlns:inkscape="http://www.inkscape.org/namespaces/inkscape"
   version="1.1"
   id="svg834"
   xml:space="preserve"
   width="2257.0847"
   height="544.17023"
   viewBox="0 0 2257.0848 544.17021"
   sodipodi:docname="new_introfigure1.svg"
   inkscape:version="0.92.5 (2060ec1f9f, 2020-04-08)"><metadata
     id="metadata840"><rdf:RDF><cc:Work
         rdf:about=""><dc:format>image/svg+xml</dc:format><dc:type
           rdf:resource="http://purl.org/dc/dcmitype/StillImage" /><dc:title></dc:title></cc:Work></rdf:RDF></metadata><defs
     id="defs838" /><sodipodi:namedview
     pagecolor="#ffffff"
     bordercolor="#666666"
     borderopacity="1"
     objecttolerance="10"
     gridtolerance="10"
     guidetolerance="10"
     inkscape:pageopacity="0"
     inkscape:pageshadow="2"
     inkscape:window-width="1370"
     inkscape:window-height="699"
     id="namedview836"
     showgrid="false"
     inkscape:zoom="0.32740517"
     inkscape:cx="1321.8308"
     inkscape:cy="-58.434038"
     inkscape:window-x="249"
     inkscape:window-y="88"
     inkscape:window-maximized="0"
     inkscape:current-layer="g844"
     fit-margin-top="0"
     fit-margin-left="0"
     fit-margin-right="0"
     fit-margin-bottom="0" /><g
     id="g842"
     inkscape:groupmode="layer"
     inkscape:label="new_introfigure1"
     transform="matrix(1.3333333,0,0,1.3333333,1.4579817,28.82802)"><g
       id="g844"><g
   id="g846"
   transform="matrix(1.0229037,0,0,1.0229037,-36.121846,-8.4401499)"><path
     d="m 1470.574,146.684 h 46.473 v 40.387 h -46.473 z"
     style="fill:none;stroke:#000000;stroke-width:0.46771699;stroke-linecap:butt;stroke-linejoin:miter;stroke-miterlimit:4;stroke-dasharray:none;stroke-opacity:1"
     id="path848"
     inkscape:connector-curvature="0" /></g><g
   id="g850"
   transform="matrix(1.0229037,0,0,1.0229037,-73.621846,-8.4401499)"><path
     d="m 1355.625,147.664 h 107.566 v 40.387 h -107.566 z"
     style="fill:#87cdde;fill-opacity:1;fill-rule:nonzero;stroke:#000000;stroke-width:0.46771699;stroke-linecap:butt;stroke-linejoin:miter;stroke-miterlimit:4;stroke-dasharray:none;stroke-opacity:1"
     id="path852"
     inkscape:connector-curvature="0" /></g><g
   id="g854"
   transform="matrix(0.00493637,1.0229037,-0.82842001,0.6000629,-36.121846,-8.4401499)"><path
     d="m 1333.915,-1952.91 h 46.339 v 31.409 l -46.339,-10e-4 v -31.41 z"
     style="fill:none;stroke:#000000;stroke-width:0.51882201;stroke-linecap:butt;stroke-linejoin:miter;stroke-miterlimit:4;stroke-dasharray:none;stroke-opacity:1"
     id="path856"
     inkscape:connector-curvature="0" /></g><g
   id="g858"
   transform="matrix(-0.00122379,1.0229037,-0.83901525,0.58513874,-36.121846,9.5598502)"><path
     d="m 1351.44,-1938.335 h 107.718 l -10e-4,31.017 h -107.718 z"
     style="fill:#ffaaaa;fill-opacity:1;fill-rule:nonzero;stroke:#000000;stroke-width:0.516653;stroke-linecap:butt;stroke-linejoin:miter;stroke-miterlimit:4;stroke-dasharray:none;stroke-opacity:1"
     id="path860"
     inkscape:connector-curvature="0" /></g><g
   id="g862"
   transform="matrix(0.63289402,-0.84906425,1.0229037,0.2741034,-36.121846,-8.4401499)"><path
     d="m 290.2,1373.45 h 39.955 l -0.002,37.196 H 290.2 v -37.2 z"
     style="fill:none;stroke:#000000;stroke-width:0.468685;stroke-linecap:butt;stroke-linejoin:miter;stroke-miterlimit:4;stroke-dasharray:none;stroke-opacity:1"
     id="path864"
     inkscape:connector-curvature="0" /></g><g
   id="g866"
   transform="matrix(0.64351278,-0.84647426,1.0229037,0.29033688,-24.121846,-23.44015)"><path
     d="m 358.555,1356.487 92.449,-10e-4 -0.004,36.831 -92.444,10e-4 z"
     style="fill:#cbebb6;fill-opacity:1;fill-rule:nonzero;stroke:#000000;stroke-width:0.46630201;stroke-linecap:butt;stroke-linejoin:miter;stroke-miterlimit:4;stroke-dasharray:none;stroke-opacity:1"
     id="path868"
     inkscape:connector-curvature="0" /></g><g
   id="g874"
   transform="translate(-93)"><path
     d="m 1179.754,167.16 c 50.215,-30.914 95.023,-27.555 136.019,0"
     style="fill:none;stroke:#000000;stroke-width:1.31810999;stroke-linecap:butt;stroke-linejoin:miter;stroke-miterlimit:4;stroke-dasharray:5.272441, 2.63622;stroke-dashoffset:0;stroke-opacity:1"
     id="path876"
     inkscape:connector-curvature="0" /></g><g
   id="g878"
   transform="matrix(1,-0.615711,0.615711,1,-93,0)"><path
     d="m 792.048,647.922 4.487,-4.49 -15.713,4.489 15.715,4.492 z"
     style="fill:#000000;fill-opacity:1;fill-rule:evenodd;stroke:#000000;stroke-width:1.19724405;stroke-linecap:butt;stroke-linejoin:miter;stroke-miterlimit:4;stroke-dasharray:none;stroke-opacity:1"
     id="path880"
     inkscape:connector-curvature="0" /></g><g
   id="g882"
   transform="matrix(-1,-0.672142,0.672142,-1,-85.5,4.5)"><path
     d="m -972.772,494.032 4.376,-4.375 -15.317,4.377 15.315,4.374 z"
     style="fill:#000000;fill-opacity:1;fill-rule:evenodd;stroke:#000000;stroke-width:1.16689301;stroke-linecap:butt;stroke-linejoin:miter;stroke-miterlimit:4;stroke-dasharray:none;stroke-opacity:1"
     id="path884"
     inkscape:connector-curvature="0" /></g><text
   transform="scale(0.99907385,1.000927)"
   style="font-variant:normal;font-weight:normal;font-size:18.41226578px;font-family:Verdana;-inkscape-font-specification:Verdana;writing-mode:lr-tb;fill:#000000;fill-opacity:1;fill-rule:nonzero;stroke:none;stroke-width:1.02195632"
   id="text890"
   x="1327.3108"
   y="112.77492"><tspan
     x="1327.3108 1345.2074 1356.3654 1367.8362 1378.7915 1387.1506 1398.8425"
     y="112.77492"
     sodipodi:role="line"
     id="tspan886"
     style="stroke-width:1.02195632">mode-1 </tspan><tspan
     x="1327.3108"
     sodipodi:role="line"
     id="tspan888"
     y="135.79025"
     style="stroke-width:1.02195632">features</tspan></text>


<text
   transform="matrix(0.59842368,-0.80142917,0.8000264,0.59963454,0,0)"
   style="font-variant:normal;font-weight:normal;font-size:18.41226578px;font-family:Verdana;-inkscape-font-specification:Verdana;writing-mode:lr-tb;fill:#000000;fill-opacity:1;fill-rule:nonzero;stroke:none;stroke-width:1.02195632"
   id="text896"
   x="908.26367"
   y="1285.5537"><tspan
     x="908.26367 926.1604 937.31824 948.78906 959.74445 968.10352 979.79523"
     y="1285.5537"
     sodipodi:role="line"
     id="tspan892"
     style="stroke-width:1.02195632">mode-2 </tspan><tspan
     x="908.26367"
     sodipodi:role="line"
     id="tspan894"
     y="1308.5691"
     style="stroke-width:1.02195632">features</tspan></text>


<text
   transform="matrix(0.01103023,-1.000866,0.99901296,0.01105066,0,0)"
   style="font-variant:normal;font-weight:normal;font-size:18.41226578px;font-family:Verdana;-inkscape-font-specification:Verdana;writing-mode:lr-tb;fill:#000000;fill-opacity:1;fill-rule:nonzero;stroke:none;stroke-width:1.02195632"
   id="text902"
   x="-331.931"
   y="1527.1504"><tspan
     x="-331.931 -314.0343 -302.87637 -291.40555 -280.45029 -272.09113 -260.39929"
     y="1527.1504"
     sodipodi:role="line"
     id="tspan898"
     style="stroke-width:1.02195632">mode-3 </tspan><tspan
     x="-331.931"
     sodipodi:role="line"
     id="tspan900"
     style="stroke-width:1.02195632"
     y="1550.1658">features</tspan></text>


<g
   id="g904"
   transform="matrix(1.0229037,0,0,1.0229037,-36.121846,-8.4401499)"><path
     d="m 1465.242,86.742 h 175.551 V 253 h -175.551 z"
     style="fill:none;stroke:#131c09;stroke-width:1.31810999;stroke-linecap:butt;stroke-linejoin:miter;stroke-miterlimit:4;stroke-dasharray:5.272441, 2.63622;stroke-dashoffset:0;stroke-opacity:1"
     id="path906"
     inkscape:connector-curvature="0" /></g><g
   id="g908"
   transform="matrix(1.0229037,0,0,1.0229037,-36.121846,-8.4401499)"><path
     d="m 1491.301,220.023 -61.719,21.985"
     style="fill:none;stroke:#000000;stroke-width:1.03464603;stroke-linecap:butt;stroke-linejoin:miter;stroke-miterlimit:4;stroke-dasharray:none;stroke-opacity:1"
     id="path910"
     inkscape:connector-curvature="0" /></g><g
   id="g912"
   transform="matrix(1.0229037,-0.36437363,0.36437363,1.0229037,-36.121846,-8.4401499)"><path
     d="m 1201.858,666.659 3.897,-3.901 -13.646,3.897 13.646,3.9 z"
     style="fill:#000000;fill-opacity:1;fill-rule:evenodd;stroke:#000000;stroke-width:1.03963196;stroke-linecap:butt;stroke-linejoin:miter;stroke-miterlimit:4;stroke-dasharray:none;stroke-opacity:1"
     id="path914"
     inkscape:connector-curvature="0" /></g><text
   transform="scale(0.99907386,1.000927)"
   style="font-variant:normal;font-weight:normal;font-size:20.45808601px;font-family:Verdana;-inkscape-font-specification:Verdana;writing-mode:lr-tb;fill:#000000;fill-opacity:1;fill-rule:nonzero;stroke:none;stroke-width:1.02195632"
   id="text920"
   x="1242.2352"
   y="236.89474"><tspan
     x="1242.2352"
     y="236.89474"
     sodipodi:role="line"
     id="tspan918"
     style="stroke-width:1.02195632">supervised tensor</tspan><tspan
     x="1242.2352"
     y="262.46735"
     sodipodi:role="line"
     id="tspan1381"
     style="stroke-width:1.02195632">decomposition</tspan></text>


<path
   d="m 1316.8198,281.49385 v -0.0164 -0.0194 l 0.01,-0.0164 v -0.0317 l 0.01,-0.0164 v -0.0276 l 0.01,-0.0286 v -0.0276 -0.0276 l 0.01,-0.0205 v -0.0194 l 0.01,-0.0245 v -0.0399 l 0.01,-0.0153 v -0.0481 -0.0164 -0.0839 l 0.01,-0.0194 v -0.0563 c 0,-0.24345 -0.067,-0.34778 -0.3836,-0.34778 -0.3836,0 -1.4341,0.52372 -2.1174,0.87458 -1.606,0.79582 -2.9286,1.46275 -2.9286,2.08672 0,0.20765 0.2394,0.20765 0.3836,0.20765 0.4153,0 1.3226,-0.48383 1.9854,-0.79582 -0.4275,3.40832 -1.2581,7.87636 -1.8852,10.87654 -1.295,5.92977 -1.9425,8.05127 -3.6487,11.44834 -0.1759,0.29971 -0.1759,0.37949 -0.1759,0.41529 0,0.23527 0.2721,0.23527 0.3519,0.23527 0.5595,0 2.0059,-0.62295 2.5654,-1.60186 0.4593,-0.79889 1.7819,-3.34899 2.8283,-7.39253 0.7641,-3.00427 2.0827,-7.56335 4.5479,-11.15988 1.61,-2.26982 3.0687,-3.32034 5.27,-3.32034 1.8739,0 3.5801,1.22646 3.5801,3.0728 0,3.06871 -3.308,4.17958 -6.9281,5.40604 -0.4122,0.14833 -2.813,0.97483 -2.813,1.85044 0,0.20765 0.2435,0.24345 0.3396,0.24345 0.1391,0 0.9503,-0.13196 1.6776,-0.13196 3.5167,0 6.3655,2.0857 6.3655,5.40196 0,4.31972 -3.6876,5.72212 -6.8524,5.72212 -2.6851,0 -3.9801,-1.46275 -4.4231,-1.96193 -0.1401,-0.17594 -0.1759,-0.23527 -0.4562,-0.23527 -0.7712,0 -2.5368,1.08224 -2.5368,1.70621 0,0.10331 1.3544,2.40075 5.1064,2.40075 4.915,0 12.1265,-3.48401 12.1265,-9.10179 0,-2.92551 -1.9578,-5.12271 -5.5053,-5.78248 2.7844,-1.19066 6.8525,-3.69575 6.8525,-6.98029 0,-2.02126 -1.6704,-3.51981 -4.24,-3.51981 -1.1825,0 -5.6413,0.31505 -9.8536,5.54618 l 0.6997,-4.60716 z"
   style="fill:#000000;fill-opacity:1;fill-rule:evenodd;stroke:none;stroke-width:1.02290368"
   id="path922"
   inkscape:connector-curvature="0" /><g
   id="g924"
   transform="matrix(1.0229037,0,0,-0.98756438,-36.121846,-8.4401499)"><path
     d="m 1548.527,-182.359 v 0.029 0.004 0.024 l -0.01,0.004 v 0.004 0.012 l -0.01,0.012 v 0.008 l -0.01,0.008 -0.01,0.013 v 0.004 l -0.01,0.012 -0.016,0.008 -0.012,0.008 -0.01,0.004 -0.011,0.004 -0.01,0.008 h -0.012 l -0.01,0.004 -0.011,0.004 h -0.016 l -0.012,0.008 h -0.035 l -0.016,0.004 h -0.058 c -0.473,0 -1.129,-0.412 -1.156,-0.412 -0.551,-0.352 -0.66,-0.551 -0.985,-1.012 -0.851,-1.291 -2.054,-2.213 -3.832,-2.213 -2.469,0 -4.687,1.776 -4.687,5.883 0,2.46 0.984,5.729 2.441,7.894 1.195,1.752 2.688,3.176 5.5,3.176 1.039,0 1.699,-0.385 1.699,-1.4 0,-0.963 -1.011,-2.905 -1.347,-3.455 -0.164,-0.3 -0.164,-0.348 -0.164,-0.409 0,-0.19 0.136,-0.19 0.304,-0.19 0.547,0 1.567,0.599 1.891,1.04 0.059,0.109 1.648,2.791 1.648,4.191 0,1.505 -1.238,1.724 -2.226,1.724 -3.969,0 -7.223,-2.598 -8.488,-4.139 -3.254,-3.941 -3.59,-8.185 -3.59,-9.61 0,-3.997 2.027,-6.218 5.207,-6.218 4.406,0 8.058,4.276 8.058,4.964 z"
     style="fill:#000000;fill-opacity:1;fill-rule:evenodd;stroke:#000000;stroke-width:0.57698703;stroke-linecap:butt;stroke-linejoin:miter;stroke-miterlimit:4;stroke-dasharray:none;stroke-opacity:1"
     id="path926"
     inkscape:connector-curvature="0" /></g><path
   d="m 1488.6838,165.49337 -4.8946,-10.81619 c -0.224,-0.50327 -0.448,-0.50327 -0.8991,-0.50327 h -4.5274 v 0.95846 h 2.1982 v 11.50767 c 0,0.44803 -0.016,0.46747 -0.5912,0.536 -0.4879,0.0552 -0.5237,0.0552 -1.1037,0.0552 h -0.5033 v 0.95948 c 0.7754,-0.0644 1.9343,-0.0644 2.7332,-0.0644 0.8593,0 1.918,0 2.7496,0.0644 v -0.95948 h -0.5043 c -0.3713,0 -0.715,-0.0194 -1.0782,-0.0552 -0.5994,-0.0685 -0.6157,-0.088 -0.6157,-0.536 v -11.24376 h 0.016 l 5.5503,12.28303 c 0.1831,0.41121 0.4276,0.51145 0.6506,0.51145 0.4081,0 0.5759,-0.30789 0.6556,-0.49201 l 5.6894,-12.56638 h 0.021 v 12.09891 h -2.2013 v 0.95948 c 0.7345,-0.0644 2.633,-0.0644 3.4677,-0.0644 0.8398,0 2.7536,0 3.4881,0.0644 v -0.95948 h -2.2013 v -12.09891 h 2.2013 v -0.95846 h -4.5029 c -0.4552,0 -0.6792,0 -0.9032,0.50327 z"
   style="fill:#000000;fill-opacity:1;fill-rule:evenodd;stroke:none;stroke-width:1.02290368"
   id="path928"
   inkscape:connector-curvature="0" /><path
   d="m 1504.5828,162.15256 v -0.12786 -0.0153 -0.0481 -0.0123 -0.0235 -0.0123 -0.008 -0.0113 -0.008 l -0.01,-0.0164 v -0.0164 l -0.033,-0.047 -0.011,-0.008 -0.033,-0.0164 -0.011,-0.004 -0.016,-0.008 -0.019,-0.007 h -0.02 l -0.01,-0.004 h -0.011 l -0.01,-0.004 h -0.056 l -0.012,-0.004 h -0.1637 c -0.9103,0.90322 -2.2053,0.91447 -2.7925,0.91447 v 0.51555 c 0.3478,0 1.2858,0 2.0653,-0.39894 v 7.29228 c 0,0.47463 0,0.65875 -1.426,0.65875 h -0.536 v 0.51146 c 0.2557,-0.0123 2.0059,-0.0563 2.5378,-0.0563 0.443,0 2.2412,0.044 2.5532,0.0563 v -0.51146 h -0.5431 c -1.427,0 -1.427,-0.18412 -1.427,-0.65875 v -7.92034 z"
   style="fill:#000000;fill-opacity:1;fill-rule:evenodd;stroke:none;stroke-width:1.02290368"
   id="path930"
   inkscape:connector-curvature="0" /><path
   d="m 1582.3992,113.74467 -10.716,-1.41058 c -0.4961,-0.0716 -0.6035,0.10024 -0.8234,0.45621 l -2.1778,3.50754 0.7396,0.46337 1.0628,-1.7062 8.8901,5.54209 c 0.3477,0.21583 0.3559,0.23629 0.1278,0.71603 -0.1913,0.40712 -0.2076,0.43474 -0.4869,0.88277 l -0.2445,0.39177 0.7437,0.46338 c 0.3232,-0.63523 0.8787,-1.53027 1.2663,-2.15424 0.4123,-0.66284 0.9237,-1.48628 1.3748,-2.10104 l -0.7436,-0.45929 -0.2394,0.38666 c -0.18,0.29255 -0.3631,0.54828 -0.5677,0.81116 -0.3396,0.43167 -0.3631,0.43576 -0.7068,0.21993 l -8.6906,-5.41423 0.01,-0.0113 12.1623,1.61005 c 0.4082,0.0552 0.6036,-0.088 0.712,-0.25982 0.1954,-0.31608 0.04,-0.59533 -0.065,-0.74365 l -6.968,-10.4684 0.01,-0.0164 9.3503,5.82952 -1.0628,1.70621 0.7437,0.4644 c 0.3027,-0.60352 1.2182,-2.07445 1.6182,-2.72195 0.4071,-0.65057 1.3257,-2.13275 1.7338,-2.67694 l -0.7436,-0.45928 -1.0628,1.7062 -9.3453,-5.82544 1.0587,-1.71029 -0.7436,-0.45928 -2.1696,3.49219 c -0.2158,0.35085 -0.3232,0.52679 -0.044,0.94312 l 6.0014,9.00564 z"
   style="fill:#000000;fill-opacity:1;fill-rule:evenodd;stroke:none;stroke-width:1.02290368"
   id="path932"
   inkscape:connector-curvature="0" /><path
   d="m 1595.1552,101.04634 -0.2353,0.3795 c 0.2271,0.18003 0.8112,0.69967 0.8306,0.91141 0.012,0.12786 -0.5196,0.97892 -0.6147,1.1344 l -1.2674,2.03762 c -0.2997,-1.80133 -0.3672,-2.38132 -0.4757,-3.36842 -0.1473,-1.22646 -0.3549,-2.41303 -1.4054,-3.068711 -1.339,-0.834689 -2.8815,-0.170825 -3.7602,1.246921 -0.8552,1.37069 -0.4716,2.90095 0.5431,3.53209 0.5637,0.35187 0.9186,-0.088 0.9871,-0.20356 0.1637,-0.25982 0.176,-0.70274 -0.224,-0.9513 -0.1953,-0.11968 -0.6311,-0.28335 -0.9871,0.29255 -0.5708,-0.82753 -0.3478,-1.73485 -0.024,-2.25755 0.6874,-1.103714 1.9016,-1.147699 2.7966,-0.59226 0.9636,0.60351 1.2991,1.76246 1.475,2.36597 l 0.979,4.30336 c 0.024,0.17594 0.051,0.19128 0.359,0.38359 l 2.8294,-4.55908 z"
   style="fill:#000000;fill-opacity:1;fill-rule:evenodd;stroke:none;stroke-width:1.02290368"
   id="path934"
   inkscape:connector-curvature="0" /><path
   d="m 1365.2599,160.16301 4.5356,-5.98194 c 0.2997,-0.37131 0.3273,-0.39484 1.2745,-0.48281 0.6475,-0.0757 0.803,-0.0757 1.5661,-0.0757 h 0.7794 v -1.27147 c -1.1354,0.0767 -2.458,0.0767 -3.62,0.0767 -1.0434,0 -3.1332,0 -4.0998,-0.0767 v 1.27147 c 0.4869,0 1.5384,0 2.4856,0.29971 -0.033,0.0471 -0.1647,0.21174 -0.2199,0.29562 l -3.5648,4.73502 -3.8635,-5.33035 h 2.2452 v -1.27147 c -1.1108,0.0767 -3.6753,0.0767 -4.8823,0.0767 -1.0832,0 -3.4328,0 -4.379,-0.0767 v 1.27147 h 2.6483 l 5.9942,8.29472 -5.4623,7.1726 c -0.2394,0.33143 -0.2915,0.3795 -1.159,0.46747 -0.5309,0.0481 -1.0986,0.0757 -1.6417,0.0757 h -0.7877 v 1.27044 c 1.1355,-0.088 2.4611,-0.088 3.6201,-0.088 1.0515,0 3.1413,0 4.1039,0.088 v -1.27044 c -0.4839,0 -1.5344,0 -2.4816,-0.29971 0.029,-0.0481 0.1596,-0.21175 0.2199,-0.29562 l 4.4517,-5.92159 4.6941,6.51692 h -2.233 v 1.27044 c 1.1027,-0.088 3.6641,-0.088 4.8823,-0.088 1.0792,0 3.4288,0 4.3678,0.088 v -1.27044 h -2.6411 z"
   style="fill:#000000;fill-opacity:1;fill-rule:evenodd;stroke:none;stroke-width:1.02290368"
   id="path940"
   inkscape:connector-curvature="0" /><path
   d="m 1381.9936,162.91258 v -0.19231 -0.0164 -0.0471 -0.0164 -0.0276 l -0.01,-0.0164 v -0.0123 -0.0153 -0.008 l -0.012,-0.0246 v -0.0194 l -0.011,-0.0164 -0.01,-0.0153 -0.012,-0.0205 -0.012,-0.0164 -0.015,-0.007 -0.033,-0.0246 -0.024,-0.004 -0.02,-0.007 -0.028,-0.008 h -0.019 l -0.016,-0.008 h -0.016 l -0.011,-0.004 h -0.064 l -0.024,-0.004 h -0.2158 c -1.2071,1.19475 -2.9215,1.21112 -3.6968,1.21112 v 0.67921 c 0.4562,0 1.7031,0 2.7332,-0.52782 v 9.64598 c 0,0.63113 0,0.87458 -1.8852,0.87458 h -0.712 v 0.67921 c 0.3355,-0.0153 2.6575,-0.0757 3.3603,-0.0757 0.584,0 2.9654,0.0604 3.3766,0.0757 v -0.67921 h -0.715 c -1.8945,0 -1.8945,-0.24345 -1.8945,-0.87458 v -10.47658 z"
   style="fill:#000000;fill-opacity:1;fill-rule:evenodd;stroke:none;stroke-width:1.02290368"
   id="path942"
   inkscape:connector-curvature="0" /><path
   d="m 1637.3417,34.781481 -2.3056,-7.148051 c -0.132,-0.456215 -0.1402,-0.496109 0.3314,-1.322615 0.3079,-0.575894 0.3959,-0.703757 0.8347,-1.330797 l 0.4439,-0.643407 -1.0392,-0.727284 c -0.5872,0.978919 -1.3462,2.066265 -2.009,3.020634 -0.5954,0.859239 -1.7901,2.573626 -2.4059,3.328529 l 1.0393,0.727284 c 0.2792,-0.403024 0.8786,-1.266354 1.6663,-1.873959 0.024,0.05217 0.08,0.255726 0.1197,0.351879 l 1.8381,5.634153 -6.5732,0.127863 1.2828,-1.846341 -1.0434,-0.723193 c -0.5708,0.954369 -2.0376,3.060528 -2.7291,4.055813 -0.6189,0.890949 -1.9619,2.817077 -2.5655,3.555613 l 1.0393,0.723193 1.5149,-2.177762 10.2209,-0.179008 2.7485,8.590345 c 0.1361,0.383589 0.1443,0.459284 -0.2792,1.218278 -0.2639,0.46849 -0.5677,0.951301 -0.8756,1.395241 l -0.4511,0.647498 1.0423,0.727284 c 0.5759,-0.98301 1.3349,-2.074448 1.9988,-3.028818 0.5984,-0.86333 1.7931,-2.577717 2.4171,-3.321368 l -1.0434,-0.726261 c -0.2751,0.394841 -0.8746,1.262263 -1.6622,1.869868 -0.024,-0.05217 -0.08,-0.255726 -0.1156,-0.351879 l -2.3015,-7.044738 8.0196,-0.131954 -1.2787,1.838158 1.0383,0.727284 c 0.5636,-0.958461 2.0263,-3.060528 2.7219,-4.063996 0.6189,-0.886858 1.9619,-2.820146 2.5685,-3.54027 l -1.0382,-0.726261 -1.5108,2.169578 z"
   style="fill:#000000;fill-opacity:1;fill-rule:evenodd;stroke:none;stroke-width:1.02290368"
   id="path944"
   inkscape:connector-curvature="0" /><path
   d="m 1658.0228,24.87159 -0.3632,0.523727 c 0.312,0.284367 1.115,1.087346 1.1303,1.394217 0,0.184123 -0.8265,1.374783 -0.9789,1.594707 l -1.9895,2.861062 c -0.2997,-2.632954 -0.3519,-3.479919 -0.4358,-4.919144 -0.1197,-1.794173 -0.3314,-3.527995 -1.8095,-4.559082 -1.8699,-1.306248 -4.1561,-0.471558 -5.5421,1.523104 -1.339,1.921013 -0.8991,4.167309 0.5237,5.161572 0.7907,0.552368 1.3339,-0.05933 1.4464,-0.218902 0.2557,-0.368245 0.3038,-1.00756 -0.2516,-1.39524 -0.2762,-0.191283 -0.8951,-0.459284 -1.4587,0.347787 -0.7631,-1.249988 -0.3723,-2.544984 0.1391,-3.27636 1.0792,-1.553791 2.8458,-1.517989 4.0998,-0.643407 1.3513,0.947209 1.7502,2.653412 1.9579,3.54027 l 1.0914,6.313361 c 0.024,0.255726 0.059,0.283344 0.491,0.583055 l 4.4517,-6.397239 z"
   style="fill:#000000;fill-opacity:1;fill-rule:evenodd;stroke:none;stroke-width:1.02290368"
   id="path946"
   inkscape:connector-curvature="0" /><text
   transform="scale(0.99907386,1.000927)"
   style="font-variant:normal;font-weight:normal;font-size:28.02597237px;font-family:Verdana;-inkscape-font-specification:Verdana;writing-mode:lr-tb;fill:#000000;fill-opacity:1;fill-rule:nonzero;stroke:none;stroke-width:0.99907386"
   id="text954"
   x="818.78918"
   y="21.293175"><tspan
     x="818.78918 836.24939"
     y="21.293175"
     sodipodi:role="line"
     id="tspan952"
     style="stroke-width:0.99907386">b.</tspan></text>


<g
   id="g956"
   transform="matrix(0.998149,0,0,1,-93,0)"><path
     d="M 964.395,200.727 V 148.25 h 110.85 v 104.961 h -110.85 z"
     style="fill:#d4a593;fill-opacity:1;fill-rule:nonzero;stroke:#000000;stroke-width:0.56526101;stroke-linecap:butt;stroke-linejoin:miter;stroke-miterlimit:7;stroke-dasharray:none;stroke-opacity:1"
     id="path958"
     inkscape:connector-curvature="0" /></g><g
   id="g960"
   transform="matrix(0.998149,0,0,1,-93,0)"><path
     d="m 963.53,147.887 c 0.29,-0.25 17.392,-10.297 38.008,-22.317 l 37.487,-21.859 54.805,0.316 54.812,0.313 -37.135,22.004 -37.131,22.008 h -55.681 c -30.631,0 -55.451,-0.211 -55.165,-0.465 z"
     style="fill:#d4a593;fill-opacity:1;fill-rule:nonzero;stroke:#000000;stroke-width:0.58371103;stroke-linecap:butt;stroke-linejoin:miter;stroke-miterlimit:7;stroke-dasharray:none;stroke-opacity:1"
     id="path962"
     inkscape:connector-curvature="0" /></g><path
   d="m 901.84,199.434 h 0.594 l 0.175,0.011 0.18,0.012 0.184,0.016 0.191,0.023 0.195,0.027 0.293,0.063 0.196,0.047 0.093,0.031 0.102,0.027 0.094,0.039 0.097,0.028 0.09,0.043 0.094,0.043 0.09,0.039 0.094,0.051 0.082,0.046 -0.11,-1.082 v -0.023 c 0.422,-0.191 1.008,-0.578 1.477,-1.137 v 2.215 c -0.633,-0.711 -1.442,-1.051 -1.477,-1.051 l 0.11,1.082 c 1.265,0.809 1.367,2.246 1.367,2.403 0.027,0.359 0.027,0.711 0.48,0.711 0.449,0 0.449,-0.371 0.449,-0.844 v -7.16 c 0,-0.418 0,-0.84 -0.449,-0.84 -0.453,0 -0.48,0.398 -0.48,0.605 -0.153,3.403 -2.84,3.594 -4.211,3.618 v -5.575 c 0,-1.773 0.496,-1.773 1.133,-1.773 h 1.265 c 3.555,0 5.324,1.824 5.485,3.644 0.019,0.219 0.054,0.618 0.472,0.618 0.45,0 0.45,-0.43 0.45,-0.871 v -3.438 c 0,-0.82 -0.059,-0.871 -0.868,-0.871 l -0.054,0.918 v 1.269 c -0.453,-0.5 -0.953,-0.918 -1.508,-1.269 h 1.508 l 0.054,-0.918 h -13.5 c -0.472,0 -0.894,0 -0.894,0.477 0,0.441 0.5,0.441 0.715,0.441 1.492,0 1.601,0.215 1.601,1.508 v 13.234 l 0.926,0.051 V 192.59 c 0,-0.317 0,-0.977 -0.215,-1.461 h 2.793 c -0.289,0.621 -0.289,1.484 -0.289,1.723 v 12.808 c 0,0.949 0.191,1.481 0.289,1.711 h -2.793 c 0.215,-0.473 0.215,-1.133 0.215,-1.449 l -0.926,-0.051 c 0,1.246 -0.074,1.5 -1.472,1.5 -0.399,0 -0.844,0 -0.844,0.457 0,0.473 0.422,0.473 0.894,0.473 h 13.969 l 0.02,-0.93 h -1.836 v -0.023 c 0.836,-0.422 1.554,-0.981 2.082,-1.45 -0.024,0.11 -0.215,1.27 -0.246,1.477 l -0.02,0.926 c 0.504,0 0.758,0 0.844,-0.371 0.027,-0.024 0.762,-4.434 0.762,-4.563 0,-0.293 -0.231,-0.484 -0.454,-0.484 -0.355,0 -0.468,0.351 -0.468,0.375 -0.153,0.687 -0.414,1.801 -2.34,2.933 -1.379,0.817 -2.719,1.184 -4.172,1.184 h -1.445 c -0.637,0 -1.133,0 -1.133,-1.77 z"
   style="fill:#000000;fill-opacity:1;fill-rule:evenodd;stroke:none"
   id="path964"
   inkscape:connector-curvature="0" /><path
   d="m 921.316,214.633 v -0.039 -0.004 -0.012 0 -0.012 l -0.012,-0.019 v -0.016 l -0.012,-0.015 -0.01,-0.012 -0.011,-0.012 -0.012,-0.015 -0.016,-0.012 -0.011,-0.016 -0.012,-0.023 -0.02,-0.024 -0.01,-0.011 -0.02,-0.02 -0.012,-0.023 -0.093,-0.09 -0.01,-0.016 -0.047,-0.047 -0.02,-0.011 -0.015,-0.028 -0.035,-0.035 -0.02,-0.016 -0.019,-0.023 -0.024,-0.023 c -3.293,-3.329 -4.129,-8.317 -4.129,-12.352 0,-4.598 1,-9.203 4.235,-12.492 0.339,-0.324 0.339,-0.375 0.339,-0.453 0,-0.184 -0.101,-0.262 -0.257,-0.262 -0.262,0 -2.641,1.793 -4.188,5.141 -1.348,2.914 -1.656,5.843 -1.656,8.066 0,2.063 0.281,5.25 1.734,8.234 1.574,3.247 3.848,4.961 4.11,4.961 0.156,0 0.257,-0.074 0.257,-0.265 v -0.004 z"
   style="fill:#000000;fill-opacity:1;fill-rule:evenodd;stroke:none"
   id="path966"
   inkscape:connector-curvature="0" /><path
   d="m 933.566,205.738 0.012,-0.093 0.01,-0.098 0.019,-0.199 0.01,-0.207 0.012,-0.211 0.02,-0.434 v -0.226 l 0.01,-0.219 0.01,-0.422 v -0.199 -0.094 l 0.01,-0.106 v -0.664 c 0,-2.773 -0.133,-12.3 -5.649,-12.3 -1.808,0 -3.422,1.613 -3.422,2.007 0,0.207 0.211,0.207 0.27,0.207 0.152,0 0.977,-0.128 1.555,-0.89 2.316,0.023 3.816,1.738 4.609,5.062 0.5,2.114 0.691,4.465 0.691,6.875 0,1.578 -0.109,3.399 -0.136,3.743 -0.024,0.207 -0.024,0.269 -0.078,0.296 -0.055,0.043 -2.696,2.266 -3.977,2.266 -0.219,0 -2.351,0 -2.851,-2.195 -0.055,-0.18 -0.083,-0.34 -0.235,-0.34 -0.32,0 -0.82,0.894 -0.82,1.562 0,1.079 1,3 3.242,3 2.004,0 6.352,-3.871 8.648,-6.539 5.278,-6.078 6.188,-10.621 6.188,-11.992 0,-2.246 -1.504,-3.062 -2.504,-3.062 -0.762,0 -0.996,1.324 -0.996,1.586 0,0.386 0.101,0.421 0.504,0.476 1.555,0.172 1.949,1.422 1.949,2.192 0,0.808 -1.238,5.515 -7.098,11.218 z"
   style="fill:#000000;fill-opacity:1;fill-rule:evenodd;stroke:none"
   id="path968"
   inkscape:connector-curvature="0" /><path
   d="m 950.172,201.703 v -0.406 -0.203 l -0.01,-0.219 -0.019,-0.449 -0.032,-0.461 -0.05,-0.492 -0.051,-0.5 -0.07,-0.516 -0.09,-0.535 -0.102,-0.543 -0.125,-0.543 -0.141,-0.559 -0.164,-0.562 -0.183,-0.567 -0.207,-0.566 -0.11,-0.281 -0.121,-0.281 -0.257,-0.559 c -1.583,-3.25 -3.84,-4.965 -4.106,-4.965 -0.16,0 -0.266,0.102 -0.266,0.262 0,0.078 0,0.129 0.496,0.609 2.59,2.61 4.09,6.813 4.09,12.336 0,4.512 -0.972,9.156 -4.246,12.488 -0.34,0.309 -0.34,0.371 -0.34,0.442 0,0.16 0.106,0.265 0.266,0.265 0.266,0 2.629,-1.796 4.188,-5.148 1.339,-2.898 1.652,-5.824 1.652,-8.047 z"
   style="fill:#000000;fill-opacity:1;fill-rule:evenodd;stroke:none"
   id="path970"
   inkscape:connector-curvature="0" /><text
   transform="scale(0.99907385,1.000927)"
   style="font-variant:normal;font-weight:normal;font-size:19.78287888px;font-family:Helvetica;-inkscape-font-specification:Helvetica;writing-mode:lr-tb;fill:#000000;fill-opacity:1;fill-rule:nonzero;stroke:none;stroke-width:0.99907386"
   id="text974"
   x="905.3606"
   y="275.66998"><tspan
     x="905.3606 910.84039 915.2323 931.71143"
     y="275.66998"
     sodipodi:role="line"
     id="tspan972"
     style="stroke-width:0.99907386">time</tspan></text>


<text
   transform="matrix(0.81839338,-0.57410815,0.57304527,0.81991137,0,0)"
   style="font-variant:normal;font-weight:normal;font-size:19.78287697px;font-family:Helvetica;-inkscape-font-specification:Helvetica;writing-mode:lr-tb;fill:#000000;fill-opacity:1;fill-rule:nonzero;stroke:none;stroke-width:0.99907386"
   id="text978"
   x="644.97809"
   y="616.12335"><tspan
     x="644.97809 649.36987 660.36914 670.26062 681.25989"
     y="616.12335"
     sodipodi:role="line"
     id="tspan976"
     style="stroke-width:0.99907386">level</tspan></text>


<text
   transform="matrix(0,-1.000927,0.99907385,0,0,0)"
   style="font-variant:normal;font-weight:normal;font-size:19.78287888px;font-family:Helvetica;-inkscape-font-specification:Helvetica;writing-mode:lr-tb;fill:#000000;fill-opacity:1;fill-rule:nonzero;stroke:none;stroke-width:0.99907386"
   id="text982"
   x="-215.25963"
   y="859.37177"><tspan
     x="-215.25963 -210.86783 -199.86855 -189.97711"
     y="859.37177"
     sodipodi:role="line"
     id="tspan980"
     style="stroke-width:0.99907386">lake</tspan></text>


<g
   id="g984"
   transform="matrix(0.998149,0,0,1,-93,0)"><path
     d="m 1148.987,103.527 v 96.485 l -73.926,52.8"
     style="fill:none;stroke:#000000;stroke-width:0.80074197;stroke-linecap:butt;stroke-linejoin:miter;stroke-miterlimit:4;stroke-dasharray:none;stroke-opacity:1"
     id="path986"
     inkscape:connector-curvature="0" /></g><g
   id="g988"
   transform="matrix(0.998149,0,0,1,-93,0)"><path
     d="m 1076.121,199.598 0.11,-51.645 35.19,-20.871 c 19.352,-11.48 35.523,-21.062 35.934,-21.293 0.708,-0.402 0.743,1.949 0.724,46.832 l -0.024,47.25 -36.016,25.684 -36.023,25.687 z"
     style="fill:#d4a593;fill-opacity:1;fill-rule:nonzero;stroke:#000000;stroke-width:0.323405;stroke-linecap:butt;stroke-linejoin:miter;stroke-miterlimit:4;stroke-dasharray:0.970216, 0.970216;stroke-dashoffset:0;stroke-opacity:1"
     id="path990"
     inkscape:connector-curvature="0" /></g><g
   id="g992"
   transform="matrix(1.0229037,0,0,1.0229037,-36.121846,-8.4401499)"><path
     d="m 1562.328,153.938 25.547,-12.004 -0.691,42.679 -24.856,16.004 z"
     style="fill:none;stroke:#000000;stroke-width:0.56692898;stroke-linecap:butt;stroke-linejoin:miter;stroke-miterlimit:4;stroke-dasharray:none;stroke-opacity:1"
     id="path994"
     inkscape:connector-curvature="0" /></g><g
   id="g996"
   transform="matrix(1.0229037,0,0,1.0229037,-36.121846,-8.4401499)"><path
     d="m 1521.59,145.27 40.738,8.668 v 46.679 l -38.664,-11.336 z"
     style="fill:none;stroke:#000000;stroke-width:0.56692898;stroke-linecap:butt;stroke-linejoin:miter;stroke-miterlimit:4;stroke-dasharray:none;stroke-opacity:1"
     id="path998"
     inkscape:connector-curvature="0" /></g><g
   id="g1000"
   transform="matrix(1.0229037,0,0,1.0229037,-36.121846,-8.4401499)"><path
     d="m 1521.59,145.27 40.738,8.668 25.547,-12.004 -36.891,-8.832 z"
     style="fill:none;stroke:#000000;stroke-width:0.56692898;stroke-linecap:butt;stroke-linejoin:miter;stroke-miterlimit:4;stroke-dasharray:none;stroke-opacity:1"
     id="path1002"
     inkscape:connector-curvature="0" /></g><g
   id="g1004"
   transform="matrix(0.89210884,0,0,0.89210884,-0.11797711,36.291907)"><path
     d="M 52.613,182.531 H 181.351 V 307.633 H 52.613 Z"
     style="fill:#d4a593;fill-opacity:1;fill-rule:nonzero;stroke:#000000;stroke-width:0.775567;stroke-linecap:butt;stroke-linejoin:miter;stroke-miterlimit:4;stroke-dasharray:none;stroke-opacity:1"
     id="path1006"
     inkscape:connector-curvature="0" /></g><text
   transform="matrix(0.70468602,-0.70910363,0.72972372,0.68477343,0,0)"
   style="font-variant:normal;font-weight:normal;font-size:71.40622711px;font-family:Helvetica;-inkscape-font-specification:Helvetica;writing-mode:lr-tb;fill:#000000;fill-opacity:1;fill-rule:nonzero;stroke:none;stroke-width:0.8794142"
   id="text1010"
   x="5.3487048"
   y="225.60986"><tspan
     x="5.3487048 25.128231 44.907757"
     y="225.60986"
     sodipodi:role="line"
     id="tspan1008"
     style="stroke-width:0.8794142">...</tspan></text>


<text
   style="font-variant:normal;font-weight:normal;font-size:19.98897934px;font-family:Helvetica;-inkscape-font-specification:Helvetica;writing-mode:lr-tb;fill:#000000;fill-opacity:1;fill-rule:nonzero;stroke:none;stroke-width:0.89210886"
   id="text1014"
   x="427.04016"
   y="331.9538"><tspan
     x="427.04016 438.15402 449.26791 460.38177 465.91873 477.03259 488.14648 499.26035 510.37421 521.4881 528.14441 539.15833 544.69531 550.23224"
     y="331.9538"
     sodipodi:role="line"
     id="tspan1012"
     style="stroke-width:0.89210886">age gender ...</tspan></text>


<g
   id="g1016"
   transform="matrix(0.89210884,0,-0.58658208,0.67214603,-0.11797711,36.291907)"><path
     d="m 748.664,128.541 h 176.199 l 0.005,281.083 H 748.665 Z"
     style="fill:#8bbdca;fill-opacity:1;fill-rule:nonzero;stroke:#000000;stroke-width:0.83284402;stroke-linecap:butt;stroke-linejoin:miter;stroke-miterlimit:4;stroke-dasharray:none;stroke-opacity:1"
     id="path1018"
     inkscape:connector-curvature="0" /></g><g
   id="g1020"
   transform="matrix(0.89210884,0,0,0.89210884,-0.11797711,36.291907)"><path
     d="M 708.754,95.617 527.207,307.82"
     style="fill:none;stroke:#000000;stroke-width:0.799999;stroke-linecap:butt;stroke-linejoin:miter;stroke-miterlimit:4;stroke-dasharray:none;stroke-opacity:1"
     id="path1022"
     inkscape:connector-curvature="0" /></g><g
   id="g1024"
   transform="matrix(0.89210884,0,0,0.89210884,-0.11797711,36.291907)"><path
     d="M 750.734,97.293 569.984,309.227"
     style="fill:none;stroke:#000000;stroke-width:0.79038;stroke-linecap:butt;stroke-linejoin:miter;stroke-miterlimit:4;stroke-dasharray:none;stroke-opacity:1"
     id="path1026"
     inkscape:connector-curvature="0" /></g><g
   id="g1028"
   transform="matrix(0.89210884,0,0,0.89210884,-0.11797711,36.291907)"><path
     d="M 797.172,96.609 616.422,308.543"
     style="fill:none;stroke:#000000;stroke-width:0.79183;stroke-linecap:butt;stroke-linejoin:miter;stroke-miterlimit:4;stroke-dasharray:none;stroke-opacity:1"
     id="path1030"
     inkscape:connector-curvature="0" /></g><path
   d="m 446.92936,290.86319 c 9.51702,-10.88283 46.3513,-53.08404 81.85099,-93.7758 l 64.54943,-73.98526 h 36.10899 l -65.40228,76.42161 c -35.9734,42.02992 -71.99943,84.20972 -80.07034,93.73744 l -14.66448,17.31227 -19.83872,0.0348 -19.82801,0.0419 z"
   style="fill:#bdcc74;fill-opacity:1;fill-rule:nonzero;stroke:none;stroke-width:0.89210886"
   id="path1032"
   inkscape:connector-curvature="0" /><path
   d="m 474.99957,307.11653 c 1.55405,-1.94123 37.59792,-44.14155 80.09085,-93.77224 l 77.25841,-90.24216 h 17.52548 c 9.64191,0 17.34706,0.44248 17.12403,0.98221 -0.21946,0.54062 -36.0296,42.7338 -79.56184,93.76242 l -79.16038,92.78289 -36.10275,0.0205 z"
   style="fill:#a2ce94;fill-opacity:1;fill-rule:nonzero;stroke:none;stroke-width:0.89210886"
   id="path1034"
   inkscape:connector-curvature="0" /><path
   d="m 554.10107,308.54212 c 0.9162,-1.15707 36.69869,-43.21554 79.51277,-93.46982 l 77.84364,-91.36086 18.31588,-0.33454 18.32303,-0.33811 -3.12238,3.3802 c -1.72445,1.8645 -38.59709,44.07642 -81.94823,93.80792 l -78.81603,90.42326 h -15.89381 c -14.89822,0 -15.78319,-0.12846 -14.21487,-2.10805 z"
   style="fill:#b18bca;fill-opacity:1;fill-rule:nonzero;stroke:none;stroke-width:0.89210886"
   id="path1036"
   inkscape:connector-curvature="0" /><g
   id="g1038"
   transform="matrix(0.89210884,0,0,0.89210884,-0.11797711,36.291907)"><path
     d="m 180.305,218.883 v -36.055 h -79.153 v -50.473 h 126.153 v 122.583 h -47 z"
     style="fill:#d4a593;fill-opacity:1;fill-rule:nonzero;stroke:#000000;stroke-width:0.71445799;stroke-linecap:butt;stroke-linejoin:miter;stroke-miterlimit:4;stroke-dasharray:none;stroke-opacity:1"
     id="path1040"
     inkscape:connector-curvature="0" /></g><g
   id="g1042"
   transform="matrix(0.89210884,0,0,0.89210884,-0.11797711,36.291907)"><path
     d="M 229.988,94.102 V 32.809 H 357.375 V 155.391 H 229.988 Z"
     style="fill:#d4a593;fill-opacity:1;fill-rule:nonzero;stroke:#000000;stroke-width:0.71445799;stroke-linecap:butt;stroke-linejoin:miter;stroke-miterlimit:4;stroke-dasharray:none;stroke-opacity:1"
     id="path1044"
     inkscape:connector-curvature="0" /></g><path
   d="m 431.6975,309.19692 c 0.62715,-1.00719 147.735,-170.06181 161.17195,-185.21339 0.46389,-0.51921 8.68735,-0.79844 18.27752,-0.6102 l 17.43449,0.33811 -44.32622,51.76015 c -24.37598,28.4672 -60.35651,70.52834 -79.96239,93.46892 l -35.62815,41.70966 h -18.93322 c -14.36474,0 -18.71377,-0.34882 -18.03398,-1.45325 z"
   style="fill:#dcb82a;fill-opacity:1;fill-rule:nonzero;stroke:none;stroke-width:0.89210886"
   id="path1046"
   inkscape:connector-curvature="0" /><text
   transform="matrix(0.71731416,-0.69704467,0.71731412,0.69704467,0,0)"
   style="font-variant:normal;font-weight:normal;font-size:19.98897743px;font-family:Helvetica;-inkscape-font-specification:Helvetica;writing-mode:lr-tb;fill:#000000;fill-opacity:1;fill-rule:nonzero;stroke:none;stroke-width:0.87941414"
   id="text1050"
   x="-145.16318"
   y="156.87366"><tspan
     x="-145.16318 -134.0493 -127.39297 -116.27911 -111.84155 -100.72768 -95.190735 -85.196243 -74.082375 -62.968498 -51.854626 -40.740753 -30.746265 -25.209322 -20.771767 -10.777273 -6.3397179 -0.80277419 9.1917191 14.728662 25.842539 36.956402 42.433388 56.865425 67.979301 74.695595 84.690071"
     y="156.87366"
     sodipodi:role="line"
     id="tspan1048"
     style="stroke-width:0.87941414">brain connectivity networks</tspan></text>


<text
   transform="scale(1.0144354,0.98577001)"
   style="font-variant:normal;font-weight:normal;font-size:17.85149002px;font-family:Helvetica;-inkscape-font-specification:Helvetica;writing-mode:lr-tb;fill:#000000;fill-opacity:1;fill-rule:nonzero;stroke:none;stroke-width:0.87941414"
   id="text1058"
   x="62.063892"
   y="237.12683"><tspan
     x="62.063892 66.026924 75.952354 85.877785 89.840813 98.766556 102.72959 112.65502 122.58044 132.50587 136.4689 141.41377"
     y="237.12683"
     sodipodi:role="line"
     id="tspan1052"
     style="stroke-width:0.87941414">individual 1</tspan><tspan
     x="101.70277 105.6658 115.59123 125.51665 129.47969 138.40544 142.36847 152.2939 162.21933 172.14474 176.10779 181.05264"
     y="191.43022"
     sodipodi:role="line"
     id="tspan1054"
     style="stroke-width:0.87941414">individual 2</tspan><tspan
     x="210.1077 214.07072 223.99615 233.92159 237.88463 246.81036 250.77341 260.69882 270.62427 280.54968"
     y="94.280632"
     sodipodi:role="line"
     id="tspan1056"
     style="stroke-width:0.87941414">individual</tspan></text>


<text
   transform="rotate(-47.999999)"
   style="font-variant:normal;font-weight:normal;font-size:19.98897934px;font-family:Helvetica;-inkscape-font-specification:Helvetica;writing-mode:lr-tb;fill:#000000;fill-opacity:1;fill-rule:nonzero;stroke:none;stroke-width:0.89210886"
   id="text1062"
   x="135.39363"
   y="516.65149"><tspan
     x="135.39363 139.83119 150.94507 162.05893 166.49649 176.49098 180.92853 192.0424 203.15628 214.27014 218.7077"
     y="516.65149"
     sodipodi:role="line"
     id="tspan1060"
     style="stroke-width:0.89210886">individuals</tspan></text>


<text
   style="font-variant:normal;font-weight:normal;font-size:23.19482994px;font-family:Helvetica;-inkscape-font-specification:Helvetica;writing-mode:lr-tb;fill:#000000;fill-opacity:1;fill-rule:nonzero;stroke:none;stroke-width:0.89210886"
   id="text1066"
   x="591.30939"
   y="107.62046"><tspan
     x="591.30939"
     y="107.62046"
     sodipodi:role="line"
     id="tspan1064"
     style="stroke-width:0.89210886">side information</tspan></text>


<g
   id="g1068"
   transform="matrix(0.89210884,0,0,0.89210884,-0.11797711,36.291907)"><path
     d="m 360.754,173.285 c 61.027,-36.976 109.336,-24.062 154.797,0"
     style="fill:none;stroke:#000000;stroke-width:1.20000005;stroke-linecap:butt;stroke-linejoin:miter;stroke-miterlimit:4;stroke-dasharray:3.599982, 3.599982;stroke-dashoffset:0;stroke-opacity:1"
     id="path1070"
     inkscape:connector-curvature="0" /></g><g
   id="g1072"
   transform="matrix(0.89210884,-0.54044311,0.54044311,0.89210884,-0.11797711,36.291907)"><path
     d="m 202.438,286.634 6.13,-6.134 -21.461,6.139 21.463,6.128 z"
     style="fill:#000000;fill-opacity:1;fill-rule:evenodd;stroke:#000000;stroke-width:1.02635098;stroke-linecap:butt;stroke-linejoin:miter;stroke-miterlimit:4;stroke-dasharray:none;stroke-opacity:1"
     id="path1074"
     inkscape:connector-curvature="0" /></g><g
   id="g1076"
   transform="matrix(-0.89210884,-0.47212987,0.47212987,-0.89210884,-0.11797711,36.291907)"><path
     d="m -458.547,77.774 6.339,-6.335 -22.182,6.337 22.178,6.337 z"
     style="fill:#000000;fill-opacity:1;fill-rule:evenodd;stroke:#000000;stroke-width:1.06063104;stroke-linecap:butt;stroke-linejoin:miter;stroke-miterlimit:4;stroke-dasharray:none;stroke-opacity:1"
     id="path1078"
     inkscape:connector-curvature="0" /></g><text
   style="font-variant:normal;font-weight:normal;font-size:39.97795868px;font-family:Helvetica;-inkscape-font-specification:Helvetica;writing-mode:lr-tb;fill:#000000;fill-opacity:1;fill-rule:nonzero;stroke:none;stroke-width:0.89210886"
   id="text1082"
   x="379.82922"
   y="154.86694"><tspan
     x="379.82922"
     y="154.86694"
     id="tspan1080"
     style="stroke-width:0.89210886">?</tspan></text>


<text
   style="font-variant:normal;font-weight:normal;font-size:28px;font-family:Helvetica;-inkscape-font-specification:Helvetica;writing-mode:lr-tb;fill:#000000;fill-opacity:1;fill-rule:nonzero;stroke:none;stroke-width:1.31143773"
   id="text1086"
   x="10.737103"
   y="22.232998"><tspan
     x="10.737103 32.52092"
     y="22.232998"
     sodipodi:role="line"
     id="tspan1084"
     style="font-size:28px;stroke-width:1.31143773">a.</tspan></text>


<path
   d="m 295.93994,90.926437 -0.01,0.03122 -0.004,0.03836 -0.0107,0.03122 v 0.03569 l -0.0214,0.07315 -0.0169,0.07315 -0.0143,0.06602 -0.017,0.07315 -0.0214,0.07315 -0.0134,0.07315 -0.007,0.03836 -0.0205,0.05888 v 0.03479 l -0.0107,0.02855 -0.004,0.03479 -0.0107,0.04817 -0.007,0.03212 -0.004,0.02052 v 0.02052 l -0.006,0.02141 -0.004,0.01695 v 0.04193 c 0,0.400557 0.30957,0.606634 0.64054,0.606634 0.27566,0 0.67622,-0.173962 0.83323,-0.627153 0.0312,-0.04907 0.29618,-1.094617 0.42553,-1.655754 l 0.50137,-2.020626 c 0.12935,-0.495121 0.26495,-0.983104 0.3729,-1.50588 0.091,-0.37647 0.27566,-1.024141 0.29618,-1.111568 0.33811,-0.700305 1.5264,-2.738774 3.64516,-2.738774 1.01432,0 1.21594,0.826093 1.21594,1.568328 0,1.393474 -1.10086,4.254467 -1.45592,5.219728 -0.19894,0.515639 -0.22303,0.787732 -0.22303,1.034847 0,1.045551 0.78327,1.836852 1.83596,1.836852 2.10806,0 2.93772,-3.272256 2.93772,-3.449785 0,-0.223027 -0.20519,-0.223027 -0.27834,-0.223027 -0.21322,0 -0.21322,0.06245 -0.3283,0.400556 -0.44605,1.519262 -1.18472,2.780704 -2.28915,2.780704 -0.38004,0 -0.52991,-0.230164 -0.52991,-0.742235 0,-0.561136 0.20251,-1.100862 0.40056,-1.592414 0.42553,-1.184721 1.37027,-3.648725 1.37027,-4.928009 0,-1.504988 -0.96883,-2.393528 -2.58265,-2.393528 -2.01438,0 -3.11168,1.428266 -3.49171,1.941228 -0.11152,-1.255197 -1.03128,-1.941228 -2.0697,-1.941228 -1.02503,0 -1.44967,0.868022 -1.67984,1.268578 -0.35863,0.766322 -0.67265,2.087535 -0.67265,2.181207 0,0.223027 0.22303,0.223027 0.27566,0.223027 0.2266,0 0.23998,-0.03122 0.37558,-0.519208 0.38004,-1.588845 0.82966,-2.665621 1.63791,-2.665621 0.44338,0 0.7012,0.285475 0.7012,1.024141 0,0.47371 -0.0731,0.725285 -0.35952,1.885918 z"
   style="fill:#000000;fill-opacity:1;fill-rule:evenodd;stroke:none;stroke-width:0.89210886"
   id="path1088"
   inkscape:connector-curvature="0" /><text
   style="font-variant:normal;font-weight:normal;font-size:44.81287003px;font-family:Helvetica;-inkscape-font-specification:Helvetica;writing-mode:lr-tb;fill:#000000;fill-opacity:1;fill-rule:nonzero;stroke:none"
   id="text1092"
   x="1147.9449"
   y="129.57751"><tspan
     x="1147.9449"
     y="129.57751"
     id="tspan1090">?</tspan></text>


<text
   xml:space="preserve"
   style="font-style:normal;font-weight:normal;font-size:30px;line-height:1.25;font-family:sans-serif;letter-spacing:0px;word-spacing:0px;fill:#000000;fill-opacity:1;stroke:none;stroke-width:0.75"
   x="870.77954"
   y="85.957077"
   id="text1096"><tspan
     sodipodi:role="line"
     id="tspan1094"
     x="870.77954"
     y="85.957077"
     style="font-size:26px;stroke-width:0.75">mean of data tensor</tspan></text>


<g
   id="g1228"
   transform="matrix(0,-0.64372533,0.64372533,0,671.70515,456.06235)"><g
     word-spacing="normal"
     letter-spacing="normal"
     font-size-adjust="none"
     font-stretch="normal"
     font-weight="normal"
     font-variant="normal"
     font-style="normal"
     stroke-miterlimit="10.433"
     xml:space="preserve"
     transform="matrix(0.70057496,0,0,-0.70057496,-122.60062,1700.7875)"
     id="content"
     style="font-style:normal;font-variant:normal;font-weight:normal;font-stretch:normal;letter-spacing:normal;word-spacing:normal;text-anchor:start;fill:none;fill-opacity:1;fill-rule:evenodd;stroke:#000000;stroke-linecap:butt;stroke-linejoin:miter;stroke-miterlimit:10.43299961;stroke-dasharray:none;stroke-dashoffset:0;stroke-opacity:1"><path
       id="path1223"
       d="M 479.63,425.98 488,437 c 0.55,0.68 0.6,0.73 2.35,0.89 1.19,0.14 1.48,0.14 2.89,0.14 h 1.44 v 2.34 c -2.1,-0.14 -4.54,-0.14 -6.68,-0.14 -1.93,0 -5.78,0 -7.57,0.14 v -2.34 c 0.9,0 2.84,0 4.59,-0.55 -0.06,-0.09 -0.3,-0.39 -0.41,-0.55 l -6.57,-8.72 -7.13,9.82 h 4.14 v 2.34 c -2.05,-0.14 -6.78,-0.14 -9.01,-0.14 -2,0 -6.33,0 -8.08,0.14 v -2.34 h 4.89 l 11.06,-15.28 -10.08,-13.21 c -0.44,-0.61 -0.54,-0.7 -2.14,-0.86 -0.98,-0.09 -2.03,-0.14 -3.03,-0.14 h -1.45 v -2.34 c 2.09,0.16 4.54,0.16 6.68,0.16 1.94,0 5.79,0 7.57,-0.16 v 2.34 c -0.89,0 -2.83,0 -4.58,0.55 0.05,0.09 0.3,0.39 0.41,0.55 l 8.21,10.9 8.66,-12 h -4.12 v -2.34 c 2.04,0.16 6.76,0.16 9.01,0.16 1.99,0 6.33,0 8.06,-0.16 v 2.34 h -4.87 z"
       inkscape:connector-curvature="0"
       style="fill:#000000;stroke-width:0" /><path
       id="path1225"
       d="m 508.36,410.4 h 0.25 l 0.25,-0.02 0.24,-0.03 0.24,-0.04 0.23,-0.05 0.23,-0.06 0.22,-0.07 0.21,-0.08 0.21,-0.1 0.2,-0.1 0.2,-0.12 0.19,-0.12 0.18,-0.14 0.17,-0.15 0.17,-0.16 0.16,-0.17 0.15,-0.18 0.14,-0.19 0.14,-0.2 0.13,-0.22 0.11,-0.22 0.11,-0.24 0.1,-0.24 0.09,-0.26 0.08,-0.27 0.07,-0.28 0.06,-0.29 0.05,-0.3 0.04,-0.31 0.02,-0.32 0.02,-0.33 0.01,-0.35 c 0,-4.33 -2.52,-5.61 -4.53,-5.61 -1.39,0 -4.47,0.38 -5.93,2.44 1.63,0.06 2.02,1.22 2.02,1.95 0,1.11 -0.84,1.91 -1.92,1.91 -0.97,0 -1.96,-0.59 -1.96,-2.02 0,-3.28 3.63,-5.4 7.85,-5.4 4.84,0 8.19,3.25 8.19,6.73 0,2.72 -2.22,5.44 -6.07,6.24 3.66,1.33 4.99,3.93 4.99,6.06 0,2.75 -3.17,4.81 -7.03,4.81 -3.88,0 -6.83,-1.89 -6.83,-4.67 0,-1.19 0.76,-1.84 1.81,-1.84 1.08,0 1.77,0.79 1.77,1.76 0,1.02 -0.69,1.75 -1.77,1.81 1.22,1.55 3.61,1.93 4.91,1.93 1.56,0 3.76,-0.77 3.76,-3.8 0,-1.47 -0.48,-3.06 -1.39,-4.14 -1.15,-1.33 -2.12,-1.41 -3.87,-1.5 -0.88,-0.08 -0.94,-0.08 -1.11,-0.11 -0.08,0 -0.36,-0.06 -0.36,-0.45 0,-0.49 0.31,-0.49 0.9,-0.49 z"
       inkscape:connector-curvature="0"
       style="fill:#000000;stroke-width:0" /></g></g><g
   id="g1370"
   transform="matrix(0,-0.54550821,0.54550821,0,809.37409,340.41509)"><g
     word-spacing="normal"
     letter-spacing="normal"
     font-size-adjust="none"
     font-stretch="normal"
     font-weight="normal"
     font-variant="normal"
     font-style="normal"
     stroke-miterlimit="10.433"
     xml:space="preserve"
     transform="matrix(0.70057496,0,0,-0.70057496,-122.60062,1700.7875)"
     id="g1368"
     style="font-style:normal;font-variant:normal;font-weight:normal;font-stretch:normal;letter-spacing:normal;word-spacing:normal;text-anchor:start;fill:none;fill-opacity:1;fill-rule:evenodd;stroke:#000000;stroke-linecap:butt;stroke-linejoin:miter;stroke-miterlimit:10.43299961;stroke-dasharray:none;stroke-dashoffset:0;stroke-opacity:1"><path
       id="path1364"
       d="m 482.72,412.78 -11.95,26.36 c -0.55,1.23 -1.09,1.23 -2.2,1.23 h -11.05 v -2.34 h 5.37 v -28.05 c 0,-1.09 -0.04,-1.14 -1.45,-1.3 -1.19,-0.14 -1.28,-0.14 -2.69,-0.14 h -1.23 v -2.34 c 1.89,0.16 4.72,0.16 6.67,0.16 2.1,0 4.69,0 6.72,-0.16 v 2.34 h -1.23 c -0.91,0 -1.75,0.05 -2.64,0.14 -1.46,0.16 -1.5,0.21 -1.5,1.3 v 27.41 h 0.04 l 13.55,-29.94 c 0.45,-1 1.05,-1.25 1.59,-1.25 1,0 1.41,0.75 1.6,1.2 l 13.9,30.63 h 0.05 v -29.49 h -5.38 v -2.34 c 1.8,0.16 6.43,0.16 8.47,0.16 2.05,0 6.72,0 8.52,-0.16 v 2.34 h -5.38 v 29.49 h 5.38 v 2.34 h -11 c -1.11,0 -1.66,0 -2.2,-1.23 z"
       inkscape:connector-curvature="0"
       style="fill:#000000;stroke-width:0" /><path
       id="path1366"
       d="m 519.4,410.4 h 0.25 l 0.25,-0.02 0.24,-0.03 0.24,-0.04 0.23,-0.05 0.23,-0.06 0.22,-0.07 0.21,-0.08 0.21,-0.1 0.2,-0.1 0.2,-0.12 0.19,-0.12 0.18,-0.14 0.17,-0.15 0.17,-0.16 0.16,-0.17 0.15,-0.18 0.14,-0.19 0.14,-0.2 0.12,-0.22 0.12,-0.22 0.11,-0.24 0.1,-0.24 0.09,-0.26 0.08,-0.27 0.07,-0.28 0.06,-0.29 0.05,-0.3 0.04,-0.31 0.02,-0.32 0.02,-0.33 0.01,-0.35 c 0,-4.33 -2.52,-5.61 -4.54,-5.61 -1.38,0 -4.46,0.38 -5.92,2.44 1.63,0.06 2.02,1.22 2.02,1.95 0,1.11 -0.85,1.91 -1.92,1.91 -0.97,0 -1.96,-0.59 -1.96,-2.02 0,-3.28 3.63,-5.4 7.85,-5.4 4.84,0 8.18,3.25 8.18,6.73 0,2.72 -2.21,5.44 -6.06,6.24 3.66,1.33 4.99,3.93 4.99,6.06 0,2.75 -3.18,4.81 -7.03,4.81 -3.88,0 -6.83,-1.89 -6.83,-4.67 0,-1.19 0.76,-1.84 1.81,-1.84 1.08,0 1.77,0.79 1.77,1.76 0,1.02 -0.69,1.75 -1.77,1.81 1.22,1.55 3.61,1.93 4.91,1.93 1.56,0 3.76,-0.77 3.76,-3.8 0,-1.47 -0.48,-3.06 -1.39,-4.14 -1.16,-1.33 -2.12,-1.41 -3.87,-1.5 -0.88,-0.08 -0.94,-0.08 -1.11,-0.11 -0.08,0 -0.36,-0.06 -0.36,-0.45 0,-0.49 0.31,-0.49 0.9,-0.49 z"
       inkscape:connector-curvature="0"
       style="fill:#000000;stroke-width:0" /></g></g></g></g></svg>